{
    "asset" : {
        "generator" : "Khronos glTF Blender I/O v1.2.75",
        "version" : "2.0"
    },
    "scene" : 0,
    "scenes" : [
        {
            "name" : "Scene",
            "nodes" : [
                0,
                1,
                2,
                3,
                4,
                5,
                6,
                7,
                8
            ]
        }
    ],
    "nodes" : [
        {
            "name" : "Light",
            "rotation" : [
                0.16907575726509094,
                0.7558803558349609,
                -0.27217137813568115,
                0.570947527885437
            ],
            "translation" : [
                4.076245307922363,
                -10.455488204956055,
                -15.168792724609375
            ]
        },
        {
            "name" : "Camera",
            "rotation" : [
                0.483536034822464,
                0.33687159419059753,
                -0.20870360732078552,
                0.7804827094078064
            ],
            "translation" : [
                7.358891487121582,
                4.958309173583984,
                -7.237547874450684
            ]
        },
        {
            "mesh" : 0,
            "name" : "Plane",
            "scale" : [
                9.981732368469238,
                1,
                -0.10265113413333893
            ],
            "translation" : [
                0.025381678715348244,
                0,
                -24.950551986694336
            ]
        },
        {
            "mesh" : 1,
            "name" : "pier stablizer",
            "scale" : [
                0.2792712450027466,
                0.2792712450027466,
                0.2792712450027466
            ],
            "translation" : [
                8.917218208312988,
                0.3515757620334625,
                -24.97353172302246
            ]
        },
        {
            "mesh" : 2,
            "name" : "pier stablizer 2",
            "scale" : [
                0.2792712450027466,
                0.2792712450027466,
                0.2792712450027466
            ],
            "translation" : [
                -8.866649627685547,
                0.3378705084323883,
                -24.943628311157227
            ]
        },
        {
            "name" : "Light.001",
            "rotation" : [
                -0.07289964705705643,
                0.9382089376449585,
                -0.3120088279247284,
                -0.13076737523078918
            ],
            "translation" : [
                -2.560204029083252,
                -10.171586990356445,
                6.9217023849487305
            ]
        },
        {
            "mesh" : 3,
            "name" : "pier stablizer.001",
            "rotation" : [
                0,
                0.7071067690849304,
                0,
                0.7071067690849304
            ],
            "scale" : [
                0.2792712450027466,
                0.2792712450027466,
                0.2792712450027466
            ],
            "translation" : [
                -12.531838417053223,
                0.3088381588459015,
                0.6903896331787109
            ]
        },
        {
            "mesh" : 4,
            "name" : "pier stablizer 2.001",
            "rotation" : [
                0,
                0.7071067690849304,
                0,
                0.7071067690849304
            ],
            "scale" : [
                0.2792712450027466,
                0.2792712450027466,
                0.2792712450027466
            ],
            "translation" : [
                -12.501935005187988,
                0.29513290524482727,
                18.474258422851562
            ]
        },
        {
            "mesh" : 5,
            "name" : "Plane.001",
            "rotation" : [
                0,
                0.7071067690849304,
                0,
                0.7071067690849304
            ],
            "scale" : [
                9.981732368469238,
                1,
                -0.10265113413333893
            ],
            "translation" : [
                -12.508858680725098,
                -0.04273757338523865,
                9.582228660583496
            ]
        }
    ],
    "materials" : [
        {
            "doubleSided" : true,
            "emissiveFactor" : [
                0,
                0,
                0
            ],
            "name" : "Material.002",
            "pbrMetallicRoughness" : {
                "baseColorTexture" : {
                    "index" : 0,
                    "texCoord" : 0
                },
                "metallicFactor" : 0,
                "roughnessFactor" : 0.5
            }
        },
        {
            "doubleSided" : true,
            "emissiveFactor" : [
                0,
                0,
                0
            ],
            "name" : "Material.006",
            "pbrMetallicRoughness" : {
                "baseColorFactor" : [
                    0,
                    0,
                    0,
                    1
                ],
                "metallicFactor" : 1,
                "roughnessFactor" : 0.5
            }
        },
        {
            "doubleSided" : true,
            "emissiveFactor" : [
                0,
                0,
                0
            ],
            "name" : "Material.005",
            "pbrMetallicRoughness" : {
                "baseColorFactor" : [
                    0,
                    0,
                    0,
                    1
                ],
                "metallicFactor" : 1,
                "roughnessFactor" : 0.5
            }
        },
        {
            "doubleSided" : true,
            "emissiveFactor" : [
                0,
                0,
                0
            ],
            "name" : "Material.004",
            "pbrMetallicRoughness" : {
                "baseColorFactor" : [
                    0,
                    0,
                    0,
                    1
                ],
                "metallicFactor" : 1,
                "roughnessFactor" : 0.5
            }
        },
        {
            "doubleSided" : true,
            "emissiveFactor" : [
                0,
                0,
                0
            ],
            "name" : "Material.003",
            "pbrMetallicRoughness" : {
                "baseColorFactor" : [
                    0,
                    0,
                    0,
                    1
                ],
                "metallicFactor" : 1,
                "roughnessFactor" : 0.5
            }
        },
        {
            "doubleSided" : true,
            "emissiveFactor" : [
                0,
                0,
                0
            ],
            "name" : "Material.001",
            "pbrMetallicRoughness" : {
                "baseColorTexture" : {
                    "index" : 1,
                    "texCoord" : 0
                },
                "metallicFactor" : 0,
                "roughnessFactor" : 0.5
            }
        }
    ],
    "meshes" : [
        {
            "name" : "Plane",
            "primitives" : [
                {
                    "attributes" : {
                        "POSITION" : 0,
                        "NORMAL" : 1,
                        "TEXCOORD_0" : 2
                    },
                    "indices" : 3,
                    "material" : 0
                }
            ]
        },
        {
            "name" : "Cube.001",
            "primitives" : [
                {
                    "attributes" : {
                        "POSITION" : 4,
                        "NORMAL" : 5,
                        "TEXCOORD_0" : 6
                    },
                    "indices" : 7,
                    "material" : 1
                }
            ]
        },
        {
            "name" : "Cube.002",
            "primitives" : [
                {
                    "attributes" : {
                        "POSITION" : 8,
                        "NORMAL" : 9,
                        "TEXCOORD_0" : 10
                    },
                    "indices" : 7,
                    "material" : 2
                }
            ]
        },
        {
            "name" : "Cube.003",
            "primitives" : [
                {
                    "attributes" : {
                        "POSITION" : 11,
                        "NORMAL" : 12,
                        "TEXCOORD_0" : 13
                    },
                    "indices" : 7,
                    "material" : 3
                }
            ]
        },
        {
            "name" : "Cube.004",
            "primitives" : [
                {
                    "attributes" : {
                        "POSITION" : 14,
                        "NORMAL" : 15,
                        "TEXCOORD_0" : 16
                    },
                    "indices" : 7,
                    "material" : 4
                }
            ]
        },
        {
            "name" : "Plane.001",
            "primitives" : [
                {
                    "attributes" : {
                        "POSITION" : 17,
                        "NORMAL" : 18,
                        "TEXCOORD_0" : 19
                    },
                    "indices" : 20,
                    "material" : 5
                }
            ]
        }
    ],
    "textures" : [
        {
            "source" : 0
        },
        {
            "source" : 0
        }
    ],
    "images" : [
        {
            "bufferView" : 4,
            "mimeType" : "image/jpeg",
            "name" : "wooden"
        }
    ],
    "accessors" : [
        {
            "bufferView" : 0,
            "componentType" : 5126,
            "count" : 5550,
            "max" : [
                1,
                5.950423717498779,
                1
            ],
            "min" : [
                -1,
                -0.5109724402427673,
                -238.5997772216797
            ],
            "type" : "VEC3"
        },
        {
            "bufferView" : 1,
            "componentType" : 5126,
            "count" : 5550,
            "type" : "VEC3"
        },
        {
            "bufferView" : 2,
            "componentType" : 5126,
            "count" : 5550,
            "type" : "VEC2"
        },
        {
            "bufferView" : 3,
            "componentType" : 5123,
            "count" : 9000,
            "type" : "SCALAR"
        },
        {
            "bufferView" : 5,
            "componentType" : 5126,
            "count" : 24,
            "max" : [
                1,
                1,
                87.65410614013672
            ],
            "min" : [
                -1,
                -1,
                -0.28385037183761597
            ],
            "type" : "VEC3"
        },
        {
            "bufferView" : 6,
            "componentType" : 5126,
            "count" : 24,
            "type" : "VEC3"
        },
        {
            "bufferView" : 7,
            "componentType" : 5126,
            "count" : 24,
            "type" : "VEC2"
        },
        {
            "bufferView" : 8,
            "componentType" : 5123,
            "count" : 36,
            "type" : "SCALAR"
        },
        {
            "bufferView" : 9,
            "componentType" : 5126,
            "count" : 24,
            "max" : [
                1,
                1,
                87.65410614013672
            ],
            "min" : [
                -1,
                -1,
                -0.28385037183761597
            ],
            "type" : "VEC3"
        },
        {
            "bufferView" : 10,
            "componentType" : 5126,
            "count" : 24,
            "type" : "VEC3"
        },
        {
            "bufferView" : 11,
            "componentType" : 5126,
            "count" : 24,
            "type" : "VEC2"
        },
        {
            "bufferView" : 12,
            "componentType" : 5126,
            "count" : 24,
            "max" : [
                1,
                1,
                87.65410614013672
            ],
            "min" : [
                -1,
                -1,
                0.7903740406036377
            ],
            "type" : "VEC3"
        },
        {
            "bufferView" : 13,
            "componentType" : 5126,
            "count" : 24,
            "type" : "VEC3"
        },
        {
            "bufferView" : 14,
            "componentType" : 5126,
            "count" : 24,
            "type" : "VEC2"
        },
        {
            "bufferView" : 15,
            "componentType" : 5126,
            "count" : 24,
            "max" : [
                1,
                1,
                87.65410614013672
            ],
            "min" : [
                -1,
                -1,
                0.7903740406036377
            ],
            "type" : "VEC3"
        },
        {
            "bufferView" : 16,
            "componentType" : 5126,
            "count" : 24,
            "type" : "VEC3"
        },
        {
            "bufferView" : 17,
            "componentType" : 5126,
            "count" : 24,
            "type" : "VEC2"
        },
        {
            "bufferView" : 18,
            "componentType" : 5126,
            "count" : 4558,
            "max" : [
                1,
                5.950423717498779,
                -1.3291335105895996
            ],
            "min" : [
                -1,
                -0.5109724402427673,
                -238.5997772216797
            ],
            "type" : "VEC3"
        },
        {
            "bufferView" : 19,
            "componentType" : 5126,
            "count" : 4558,
            "type" : "VEC3"
        },
        {
            "bufferView" : 20,
            "componentType" : 5126,
            "count" : 4558,
            "type" : "VEC2"
        },
        {
            "bufferView" : 21,
            "componentType" : 5123,
            "count" : 7224,
            "type" : "SCALAR"
        }
    ],
    "bufferViews" : [
        {
            "buffer" : 0,
            "byteLength" : 66600,
            "byteOffset" : 0
        },
        {
            "buffer" : 0,
            "byteLength" : 66600,
            "byteOffset" : 66600
        },
        {
            "buffer" : 0,
            "byteLength" : 44400,
            "byteOffset" : 133200
        },
        {
            "buffer" : 0,
            "byteLength" : 18000,
            "byteOffset" : 177600
        },
        {
            "buffer" : 0,
            "byteLength" : 58278,
            "byteOffset" : 195600
        },
        {
            "buffer" : 0,
            "byteLength" : 288,
            "byteOffset" : 253880
        },
        {
            "buffer" : 0,
            "byteLength" : 288,
            "byteOffset" : 254168
        },
        {
            "buffer" : 0,
            "byteLength" : 192,
            "byteOffset" : 254456
        },
        {
            "buffer" : 0,
            "byteLength" : 72,
            "byteOffset" : 254648
        },
        {
            "buffer" : 0,
            "byteLength" : 288,
            "byteOffset" : 254720
        },
        {
            "buffer" : 0,
            "byteLength" : 288,
            "byteOffset" : 255008
        },
        {
            "buffer" : 0,
            "byteLength" : 192,
            "byteOffset" : 255296
        },
        {
            "buffer" : 0,
            "byteLength" : 288,
            "byteOffset" : 255488
        },
        {
            "buffer" : 0,
            "byteLength" : 288,
            "byteOffset" : 255776
        },
        {
            "buffer" : 0,
            "byteLength" : 192,
            "byteOffset" : 256064
        },
        {
            "buffer" : 0,
            "byteLength" : 288,
            "byteOffset" : 256256
        },
        {
            "buffer" : 0,
            "byteLength" : 288,
            "byteOffset" : 256544
        },
        {
            "buffer" : 0,
            "byteLength" : 192,
            "byteOffset" : 256832
        },
        {
            "buffer" : 0,
            "byteLength" : 54696,
            "byteOffset" : 257024
        },
        {
            "buffer" : 0,
            "byteLength" : 54696,
            "byteOffset" : 311720
        },
        {
            "buffer" : 0,
            "byteLength" : 36464,
            "byteOffset" : 366416
        },
        {
            "buffer" : 0,
            "byteLength" : 14448,
            "byteOffset" : 402880
        }
    ],
    "buffers" : [
        {
            "byteLength" : 417328,
            "uri" : "data:application/octet-stream;base64,"
        }
    ]
}
